
<svg xmlns="http://www.w3.org/2000/svg" version="1.1" xmlns:xlink="http://www.w3.org/1999/xlink" preserveAspectRatio="none" x="0px" y="0px" width="720px" height="720px" viewBox="0 0 720 720">
<defs/>

<g id="Layer_1">
<g transform="matrix( 1, 0, 0, 1, 0,0) ">
<g>
<g>
<path fill="#FFB240" stroke="none" d="
M 648.3 128.95
L 648.3 129
Q 648.2748046875 129.0359375 648.25 129.05
L 648.25 129.15
Q 648.219140625 129.15625 648.2 129.15 647.6744140625 129.9076171875 647.15 130.65 647.0546875 131.051171875 646.95 131.4 647.15 133 646.85 134.55 646.5220703125 136.2302734375 645.9 137.9 645.4650390625 140.126953125 645.25 142.4 644.8 146.6 643.65 150.75 642.6 154.25 641.45 157.8 641.45 158.35 641.45 158.85 641.45 159.35 641.45 159.9 641.45 160.9 641.35 161.95 641.25 162.95 641.1 164 640.95 164.5 640.7 165 640.25 166.05 639.6 167 639.353515625 167.351953125 639.1 167.7 639.0177734375 169.2517578125 638.7 170.75 638.45 171.9 638.1 173.05 638.1 174.2 637.85 175.25 637.55 176.7 637.65 178.2 637.6 178.2 637.6 178.25 636.5 181.5 635.4 184.75 634.35 187.95 633.35 191.3 632.8 193.2 632.4 195.15 631.5 196.4 630.65 197.75 630.2 198.35 629.8 199.05 629.35 199.7 629 200.35 628.7 201 628.45 201.65 628.3 202.25 628.2 202.95 628.05 203.6 627.95 204.2 627.85 204.85 627.6 205.55 627.4 206.15 627.2 206.8 625.95 209.8 624.1 212.3 621.05 216.4 617.45 220.05 615.75 221.8 614.15 223.7 613.3 224.35 612.45 224.95 611.35 225.65 610.35 226.35 609.25 226.95 608.15 227.6 606.65 228.9 605 230 602.75 231.5 600.3 232.65 598.6 233.45 596.9 234.1 590.4 238.25 583 240.45 575.45 242.7 568.3 245.8 549.45 246 530.6 246.2 522.75 244.3 515.55 240.4 505.45 234.95 496.45 228.05 496.2 227.35 496 226.75 495.75 226.1 495.6 225.45 493.8 222.5 491.7 219.85 488.65 216 484.95 212.7 483 210.95 482.15 208.6 482.15 207.9 482.05 207.25 481.9 206.65 481.7 205.95 481.7 205.9 481.65 205.75 480.45 204.5 479.2 203.2 472.45 195.65 467 187.35 466.55 186 466.15 184.75 465.5 182.8 464.8 180.85 464.2 178.9 463.55 176.95 463.3 176.3 463.1 175.6 462.7 175 462.3 174.3 461.6 173.05 460.9 171.75 460.25 170.45 459.6 169.2 459.25 168.65 458.95 168.15 458.85 168.45 458.8 168.75 458.55 169.35 458.3 170 458.1 170.7 457.9 171.3 457.45 171.95 457.05 172.65 456.35 173.9 455.75 175.2 454.9 177.15 453.9 179.05 453.55 179.75 453.15 180.4 452.9 181.05 452.7 181.7 452.45 182.35 452.35 183.05 452.3 183.65 452.2 184.3 452.05 185 451.85 185.6 451.6 186.25 451.3 186.85 450.95 187.55 450.5 188.2 450.1 188.85 449.6 189.45 449 190.15 448.4 190.8 447.8 191.1 447.3 191.45 447.2 191.75 447.05 192.1 446.65 193.4 446.3 194.75 446.2 195.35 446.2 196 445.75 196.65 445.35 197.25 444.9 197.95 444.5 198.6 443.6 199.2 442.8 199.95 442.05 200.55 441.5 201.25 441.05 201.85 440.6 202.5 440.35 203.15 440.1 203.8 439.95 204.45 439.7 205.1 439.5 205.7 439.25 206.4 438.2 207.65 437.15 209 434.95 211.55 432.55 213.85 430.8 215.45 428.85 216.8 428.25 217.45 427.6 218.05 426.95 218.75 426.3 219.4 418.25 225.05 409 228.55 402.2 231.2 395.1 231.4 367.65 232.15 340.35 229.35 329.15 228.2 318.05 225.45 312.15 222.55 306.2 219.95 297.25 216.15 288.65 211.55 287.95 210.95 287.25 210.4 285.4 209.05 283.65 207.6 283.3 207.45 282.95 207.35 282.2 206.8 281.5 206.2 280.9 205.65 280.35 205.1 279.95 204.7 279.55 204.35 279.2 204.15 278.8 204.05 278.05 203.8 277.3 203.55 276.2 203.2 275.05 202.85 272.8 200.55 270.65 198.2 270.1 197.6 269.55 197 269.25 196.9 269 196.8 268.45 196.25 267.9 195.65 267.3 195.1 266.75 194.55 266.2 194 265.65 193.4 265.45 192.85 265.15 192.3 264.85 191.7 264.5 191.15 264.1 190.6 263.7 190.05 263.2 189.45 262.6 188.9 262.4 188.3 262.15 187.8 261.85 187.3 261.55 186.85 260.75 186.35 259.95 185.85 259.4 185.3 258.85 184.75 258.25 184.2 257.7 183.6 257.5 183.05 257.25 182.5 256.95 181.9 256.6 181.35 256.4 180.8 256.2 180.2 256 179.65 255.8 179.1 255.65 178.5 255.55 177.95 255.45 177.4 255.35 176.85 255.35 176.75 255.3 176.65 255 176.15 254.7 175.7 253.95 174.55 253.05 173.55 252.05 172.3 250.9 171.15 250.75 170.6 250.55 170.05 250.35 169.45 250.15 168.9 250 168.35 249.8 167.8 249.6 167.2 249.3 166.75 248.85 166.1 248.4 165.5 248.2 166.8 247.95 168.1 247.1 172.05 246.8 176.05 246.4 176.65 246 177.2 245.85 177.75 245.65 178.35 245.45 178.9 245.35 179.5 245.25 180.05 245.25 180.6 244.9 181.15 244.5 181.75 244.35 182 244.15 182.3 244 183.15 243.75 184 243.4 184.55 242.95 185.05 242.45 185.7 241.9 186.25 241.45 186.65 241.1 187.15 241.05 187.25 241.05 187.35 240.95 187.95 240.85 188.55 240.75 189.1 240.75 189.65 240.35 190.2 240 190.75 239.6 191.35 239.25 191.9 239.05 192.45 238.85 193.05 238.65 193.6 238.5 194.15 238.45 194.2 238.4 194.3 238.3 194.8 238.1 195.3 238 195.6 237.9 195.9 237.85 195.95 237.75 196.05 236.8 196.6 235.85 197.2 235.45 197.75 235.1 198.3 234.7 198.9 234.35 199.45 233.95 200 233.6 200.6 232.85 201.15 232.05 201.65 231.25 202.2 230.45 202.7 229.55 203.85 228.65 205 228.65 205.05 228.6 205.05
L 228.6 205.1
Q 228.3 205.65 227.95 206.25 227.55 206.55 227.15 206.8 220.35 214.7 211.1 219.6 210.95 219.75 210.75 219.95 201.85 229.2 189 231.95 176 232.15 163.05 232.35 160.2 231.25 157.35 230.5 152.85 229.3 148.35 228.45 145.5 227.35 142.6 226.75 138.1 225.65 133.6 225 128.45 222.25 123.25 219.7 113.75 215 104.2 210.7 102.85 209.45 101.4 208.3 97.35 205.05 93.65 201.5 93.7 201.4 93.7 201.35 93.7 200.75 93.65 200.2 93.55 199.65 93.35 199.05 93.15 198.5 92.95 197.95 92.85 197.5 92.7 197.15 92.3 196.95 91.85 196.8 91.25 196.25 90.7 195.65 90.15 195.1 89.65 194.5 88.8 193.4 88.05 192.3 86.95 191.7 85.8 191.15 85.25 190.6 84.65 190 84.1 189.45 83.55 188.9 83.35 188.3 83.15 187.75 82.95 187.2 82.8 186.65 82.6 186.05 82.4 185.5 82.05 184.95 81.6 184.4 81.1 183.8 80.5 183.25 79.95 182.65 79.45 182.05 79 181.55 78.65 180.95 78.45 180.4 78.25 179.85 78.05 179.3 77.9 178.7 77.7 178.15 77.5 177.6 77.15 177 76.7 176.5 76.2 175.9 75.6 175.3 75.45 174.75 75.15 174.25 74.5 173.05 73.65 172 72.6 170.8 71.65 169.55 71.3 169.1 71.1 168.55 71.1 168.5 71.1 168.45 70.5 168.1 69.95 167.8 69.4 167.2 68.85 166.65 68.25 166.1 67.7 165.5 67.15 164.95 66.6 164.4 66.4 163.8 66.2 163.25 66 162.7 65.8 162.1 65.5 161.2 65.2 160.35 62.85 157.05 60.65 153.75 59.6 152.15 58.65 150.45 58.45 149.85 58.3 149.3 58.1 148.75 57.9 148.15 57.7 147.6 57.55 147.05 57.15 146.5 56.7 145.95 56.2 145.35 55.7 144.7 54.9 143.65 54.15 142.5 53.75 141.95 53.4 141.4 53.4 140.8 53.3 140.25 53.2 139.7 53 139.15 52.8 138.55 52.7 138 52.65 137.45 52.65 136.85 52.45 136.3 52.15 135.75 51.85 135.15 51.45 134.65 50.95 134.05 50.35 133.45 50.25 133.55 50.2 133.65 50.25 133.95 50.35 134.25 50.55 134.8 50.75 135.35 50.95 135.9 51.1 136.5 51.1 137.05 51.1 137.6 51.1 138.2 51.1 138.75 51.1 139.3 51.1 139.9 51.1 140.45 51.1 141 51.5 142.15 51.95 143.25 52.65 144.9 52.9 146.6 53.2 148.35 53.75 150.05 53.95 150.6 54.15 151.2 54.15 152.3 54.15 153.45 54.15 155.15 54.15 156.85 54.15 158.55 54.15 160.25 54.15 160.8 54.15 161.35 54 161.75 53.9 162.15 54.2 163.1 54.5 164 54.7 164.55 54.9 165.15 55.1 165.7 55.25 166.25 55.65 166.85 55.95 167.45 56.2 167.95 56.45 168.5 56.65 168.9 56.85 169.3 57 170.4 57.05 171.55 57.1 172.7 57.15 173.8
L 57.15 174.95
Q 57.15 175.1 57.15 175.3
L 57.15 175.8
Q 57.15 176.45 57.15 177.2 57.2 177.35 57.25 177.45 57.25 177.5 57.25 177.55 57.35 178.15 57.45 178.75 57.55 179.3 57.55 179.85 57.9 180.4 58.2 181 58.45 181.55 58.65 182.1 58.65 183.25 58.65 184.35
L 58.65 188.9
Q 58.65 189.75 58.7 190.6 58.75 202 59 213.4 59.35 230.6 57.7 247.4 56.7 257.25 54.6 267 54.35 269.65 54.15 272.35 54.15 273.4 54.15 274.45 54.15 276.15 54.15 277.85 54.15 279 54.15 280.1 53.95 280.7 53.75 281.25 53.55 281.8 53.4 282.4 53.3 282.65 53.25 282.9 52.55 289.95 51.75 297 50.75 306.05 49.7 315.05 48.15 328.2 46.1 341.3 46.45 348.4 47.1 355.4 47.25 357.3 47.5 359.2 43.8 371.15 44.05 383.9 44.4 405.3 45.45 426.75 46.2 442.35 49.45 457.7 49.1 458.25 48.8 458.85 48.55 459.45 48.3 460.1 48.3 460.75 48.2 461.45 47.55 465.85 47.95 470.5 48.4 475.1 49.7 479.55 50.5 482.2 51.35 484.8 51.35 485.45 51.3 486.05 51.05 488.15 51.4 490 51.75 492 52.55 493.95 53.05 495.2 53.45 496.45 53.7 497.15 53.95 497.8 54.4 498.4 54.75 499.1 55 499.75 55.3 500.35 55.65 501.05 56.1 501.7 56.3 502.3 56.5 503 56.95 504.25 57.4 505.6 57.85 506.85 58.25 508.15 58.45 508.8 58.7 509.5 58.95 510.1 59.1 510.75 59.55 511.45 60 512.1 60.4 513.4 60.9 514.65 61.3 516 61.75 517.25 61.9 517.95 62.15 518.55 62.35 519.2 62.6 519.9 63 520.5 63.45 521.15 63.7 521.85 63.85 522.45 64.1 523.1 64.3 523.75 64.55 524.4 64.75 525.05 64.95 525.7 65.2 526.4 81.05 554.4 103.65 577.1 109.35 582.7 115.3 587.8 141.95 610.5 173.85 624.8 183.1 628.95 192.5 632.1 218.05 644.25 245.05 652.85 282 664.55 319.95 665.1 323.55 665.6 327.2 665.8 339.4451171875 666.508203125 351.65 666.45 352.2533203125 666.2740234375 352.85 666.1 353.6365234375 666.28515625 354.4 666.4 361.5173828125 666.34296875 368.6 666 369.0525390625 666.080078125 369.5 666.15 370.777734375 666.1291015625 372.05 666.1 382.2107421875 664.3482421875 392.3 662.4 402.420703125 662.1998046875 412.5 661.8 430.525 661.0853515625 446.95 654.3 448.69375 654.0640625 450.4 653.8 463.4 651.75 475.65 647.25 478.25 646.9 480.75 646.3 481.0623046875 646.221875 481.35 646.15 481.43828125 646.1357421875 481.5 646.1 484.5404296875 645.383984375 487.7 644.85 488.35 644.5 489 644.1 489.3013671875 643.919140625 489.6 643.7 490.2716796875 643.534375 490.95 643.35 495.152734375 642.1986328125 499.35 641.05 500.6123046875 640.290234375 501.8 639.35 521.5 631.45 540.95 623.2 548.053515625 620.1947265625 555.3 617.75 557.1080078125 616.7615234375 558.9 615.75 578.1 604.9 595.2 591.05 608.608203125 580.150390625 621.65 568.75 624.64453125 564.903515625 627.6 561 627.85 560.35 628.05 559.7 628.3 559.05 628.45 558.4 629.8 556.45 631.1 554.5 632.4 552.55 633.6 550.55 634.35 549.3 635 548 635.4 547.35 635.8 546.7 636.05 546.05 636.3 545.4 636.5 544.75 636.75 544.1 636.9 543.5 637.15 542.8 637.8 542.15 638.4 541.5 638.85 540.85 639.35 540.2 639.75 539.6 640.2 538.9 640.6 537.65 641.05 536.3 641.45 535.05 641.8 533.65 641.9 533.1 642.05 532.45 642.15 531.75 642.35 531.15 643.25 529.8 644 528.5 644.75 527.25 645.35 525.9 646.05 524.65 646.75 523.35 647.1 522.7 647.55 522 647.75 521.4 648 520.75 648.15 520.05 648.4 519.45 648.65 518.8 648.85 518.1 649.05 517.45 649.25 516.85 649.5 516.2 649.7 515.5 650.1 514.9 650.6 514.25 650.8 513.55 651 512.95 651.2 512.3 651.45 511.6 651.65 511 651.85 510.35 652.3 509.65 652.75 509.05 652.95 508.4 653.15 507.7 653.4 507.1 653.65 506.45 654.05 505.8 654.5 505.15 654.65 504.5 654.9 503.85 655.1 503.2 655.35 502.55 655.75 501.9 656.2 501.2 656.45 500.6 656.6 499.95 657.05 498.65 657.45 497.4 657.95 496.05 658.4 494.75 658.55 494.1 658.8 493.45 659 492.8 659.25 492.15 659.25 491.5 659.25 490.85 659.25 490.2 659.25 489.55 659.65 488.95 660.1 488.25 660.5 487 661 485.65 661.4 484.35 661.85 483.1 662.05 482.4 662.25 481.75 662.45 481.1 662.7 480.45 662.7 479.8 662.7 479.15 662.7 478.55 662.7 477.85 662.95 477.2 663.1 476.6 663.55 475.25 663.9 473.95 664.2 472.7 664.35 471.35 664.4 470.75 664.4 470.1 664.4 469.4 664.4 468.8 664.9 468.15 665.3 467.45 665.5 466.8 665.75 466.2 666.35 464.25 666.85 462.25 667.25 460.35 667.5 458.4 667.7 457.05 667.8 455.8 667.85 455.1 667.85 454.5 670.05 448.85 669.8 442.75 669.65 436.95 669.65 431.1 669.6 426.55 669.65 422.05 671.65 415.7 671.5 409 671.35 402.5 671.35 396 671.35 391.5 671.35 386.95 673.8 380.05 673.45 372.65 673.1 364.85 673.3 357.1 673.55 351 671.35 345.35 670.2 338.25 670 331.05 669.65 321.35 669.25 311.6 668.9 303.6 666.15 296.05 666.15 294.7 666.1 293.4 665.95 291.45 665.55 289.55 665.3 288.25 664.9 286.9 664.65 286.3 664.4 285.65 664.4 284.35 664.4 283 664.4 280.4 664.4 277.85 664.4 275.9 664.4 273.95 664.4 272.6 664.4 271.35 664.2 270.65 664 270.05 663.8 269.4 663.7 268.7 663.55 268.05 663.55 267.45 663.1 266.8 662.85 266.05 662.7 265.5 662.7 264.85 662.7 263.55 662.7 262.2 662.7 260.9 662.7 259.5 659.45 246.75 656.65 233.9 650.85 206.85 649.65 179.1 649.33515625 172.0474609375 649.45 165.05 649.4060546875 164.887109375 649.35 164.7 648.75 161.15 648.7 157.5 648.65 153.2 649.7 149.15 649.85078125 148.519921875 650 147.9 650.348046875 139.8439453125 650.25 131.75 650.2326171875 130.7541015625 650.2 129.75 650.192578125 129.73125 650.15 129.7 649.23359375 129.3140625 648.3 128.95
M 448.2 311.5
Q 458.25 330.15 464.7 339.2 474.9 353.7 486.3 361.2 497.95 368.9 511.9 370 525.85 371.15 538.5 365.6 551.05 359.9 560.4 348.3 569.8 336.65 573.5 322.05 571 341.05 570.3 369.55 569.9 385.55 569.2 417.5 568.25 444.85 564.85 464.15 560.55 488.65 551.45 507.85 547 517.45 539.9 528.4 535.45 535.4 526.7 547.6 517.7 560.2 512 566.8 503.4 576.85 494.9 582.9 487.25 588.3 476.85 592.35 469.8 595.15 457.7 598.6 428.65 606.85 405.6 610.35 377.3 614.65 352.75 612.9 336.05 611.75 315.55 607.4 303.2 604.75 278.85 598.35 253.45 591.6 240.5 586.65 219.65 578.65 205.3 567.05 185.85 551.35 170.25 522.45 160.45 504.2 146.4 467.7 132.8 432.6 128.45 411.4 123.55 387.2 126.4 366.95 126.3 364.45 126.35 362.5 126.55 356.5 126.3 350.25 126.25 349.25 126.15 348.4 125.6 331.95 127.65 317 131.85 324.35 138.7 331 144.15 336.25 152.35 342 171 354.95 189.65 360.55 210.7 366.85 229.6 362.9 250.2 358.7 265.3 341.8 281.05 324.25 281.85 302.05 290.85 331.2 313.25 351.1 336 371.2 362.9 373.3 390.4 375.3 414.75 357.9 439.45 340.25 448.2 311.5 Z"/>

<path fill="#FFEF91" stroke="none" d="
M 464.7 339.2
Q 458.25 330.15 448.2 311.5 439.45 340.25 414.75 357.9 390.4 375.3 362.9 373.3 336 371.2 313.25 351.1 290.85 331.2 281.85 302.05 281.05 324.25 265.3 341.8 250.2 358.7 229.6 362.9 210.7 366.85 189.65 360.55 171 354.95 152.35 342 144.15 336.25 138.7 331 131.85 324.35 127.65 317 125.6 331.95 126.15 348.4 126.25 349.25 126.3 350.25 126.55 356.5 126.35 362.5 126.3 364.45 126.4 366.95 123.55 387.2 128.45 411.4 132.8 432.6 146.4 467.7 160.45 504.2 170.25 522.45 185.85 551.35 205.3 567.05 219.65 578.65 240.5 586.65 253.45 591.6 278.85 598.35 303.2 604.75 315.55 607.4 336.05 611.75 352.75 612.9 377.3 614.65 405.6 610.35 428.65 606.85 457.7 598.6 469.8 595.15 476.85 592.35 487.25 588.3 494.9 582.9 503.4 576.85 512 566.8 517.7 560.2 526.7 547.6 535.45 535.4 539.9 528.4 547 517.45 551.45 507.85 560.55 488.65 564.85 464.15 568.25 444.85 569.2 417.5 569.9 385.55 570.3 369.55 571 341.05 573.5 322.05 569.8 336.65 560.4 348.3 551.05 359.9 538.5 365.6 525.85 371.15 511.9 370 497.95 368.9 486.3 361.2 474.9 353.7 464.7 339.2
M 425 393.85
Q 425.9 394.45 426.7 395.2 427.35 395.8 428.05 396.4 428.7 397.1 429.25 397.8 429.8 398.35 430.2 399.05 430.65 399.7 431.05 400.35 431.7 404.15 431.6 408.15 431.5 414.6 431.5 421.1 431.5 427.6 431.5 434.1 431.25 434.8 431.05 435.4 430.85 436.05 430.65 436.75 430.4 437.35 430.2 438 430 438.7 429.8 439.3 429.55 439.95 429.3 440.6 429.1 441.25 428.9 441.9 428.45 442.55 428 443.15 427.35 443.85 426.75 444.5 426.5 445.2 426.2 445.75 425.9 446.45 425.4 447.15 425 447.75 424.65 448.45 424.4 449 424.05 449.65 423.3 451 422.45 452.3 421.75 452.75 421.1 453.15 420.25 453.4 419.4 453.6 417.2 453.6 415 453.6 413.55 453.15 412.05 452.75 411.15 452.05 410.3 451.4 409.6 450.8 409.05 450.05 408.55 449.5 408.15 448.85 407.9 448.15 407.65 447.55 407.45 446.9 407.25 446.2 407.05 445.6 406.8 444.95 406.4 444.3 405.95 443.6 405.55 441.1 405.55 438.45 405.55 434.55 405.35 430.65 405.2 426 405.85 421.5 405.95 420.9 405.95 420.25 406.4 419.6 406.8 418.95 407.05 418.3 407.1 417.65 407.25 416.35 407.25 415.1 407.25 413.75 407.25 412.45 407.25 410.55 407.45 408.6 407.45 407.9 407.65 407.25 407.9 406.65 408.25 406.05 408.75 405.3 409.35 404.65 409.85 404 410.25 403.35 410.5 402.75 410.6 402.05 410.7 401.4 410.7 400.8 410.7 400.1 410.7 399.45 410.95 398.85 411.25 398.2 411.6 397.5 412.1 396.95 412.65 396.25 413.3 395.55 414.85 394.95 416.35 394.25 416.8 394.05 417.2 393.85 417.65 393.6 418.1 393.55 418.95 393.45 419.75 393.2 419.8 393.2 419.8 393 421.35 393 422.85 393 423.9 393.45 425 393.85
M 257.45 395.55
Q 257.85 394.95 258.25 394.25 258.55 393.6 258.75 393 259.4 392.35 260.05 391.65 260.65 391 261.35 390.4 262.6 390.15 263.9 389.75 263.95 389.75 263.95 389.55 265.45 389.55 267 389.55 268.05 389.95 269.15 390.4 270 391 270.9 391.65 271.05 392.35 271.3 393 271.5 393.6 271.75 394.3 271.95 394.95 272.15 395.55 272.4 396.25 272.6 396.9 273 397.5 273.35 398.2 273.7 398.85 274 399.4 274.35 400.1 274.75 400.8 275.4 402.05 276.05 403.35 276.3 404 276.5 404.7 276.7 405.3 276.9 405.95 277.15 406.65 277.35 407.25 277.1 412 278.05 416.45 279.35 422.15 279.2 428.05 279.1 433.9 279.1 439.7 278.85 440.4 278.65 441.05 278.25 442.35 277.95 443.7 277.6 445.6 277.15 447.45 276.75 449.5 276.05 451.45 275.65 452.05 275.3 452.75 274.95 453.4 274.65 453.95 274.35 454.65 273.8 455.2 272.4 456.6 270.9 457.9 269.8 458.4 268.7 458.8 268.05 458.8 267.45 458.65 266.1 458.4 264.8 457.9 264.15 457.3 263.55 456.6 262.85 455.95 262.2 455.35 262.2 454.65 262 454.1 261.75 453.4 261.3 452.75 260.65 452.05 260.1 451.4 259.65 450.8 259.15 450.1 258.95 449.5 258.75 448.85 258.55 448.15 258.4 447.55 258.3 446.9 258.3 446.2 258.1 445.6 257.8 445 257.45 444.3 257.1 443.55 256.8 443 256.55 442.35 255.95 441.05 255.25 439.7 255.05 439.1 255 438.4 254.85 437.75 254.85 437.15 254.85 436.5 254.85 435.85 254.85 435.2 254.85 434.55 254.85 433.9 254.85 433.25 254.65 432.6 254.4 431.95 254.15 431.3 254 430.65 253.75 430 253.55 429.35 253.3 428.7 253.15 428.05 253.15 427.35 253.15 426.75 253.15 426.1 253.15 425.5 253.15 424.8 253.15 424.15 253.15 422.85 253.15 421.55 253.15 420.9 253.15 420.25 253.3 419.6 253.55 418.95 253.75 418.3 254 417.65 254.15 417.05 254.4 416.35 254.65 415.7 254.85 415.1 254.85 413.75 254.85 412.45 254.85 410.55 254.85 408.55 254.85 405.95 255 403.35 255.05 402.05 255.25 400.8 255.25 400.1 255.55 399.6 255.95 398.85 256.6 398.2 256.8 397.5 257 396.9 257.2 396.25 257.45 395.55
M 234.5 492.55
Q 235.35 493.25 236.2 493.85 236.45 494.5 236.65 495.15 236.9 495.8 237.1 496.45 240.95 500.65 245.4 504.2 250.95 508.8 257.4 512.1 259.8 513.35 262.2 514.65 262.85 515.3 263.55 515.9 264.15 516.6 264.8 517.25 287.5 531.1 313.65 535.45 342.15 540.15 370.85 536.3 375.1 534.55 379.6 533.95 384.75 533.25 389.95 532.8 409.7 525.8 428.75 517.3 438.45 512.95 448.85 510.75 452.45 507.55 457 505.95 459.75 504.9 462.65 504.05 463.95 503.6 465.25 502.95 465.9 502.3 466.6 501.7 467.2 501 467.85 500.35 468.95 499.75 470.1 499.15 471.15 498.65 472.2 498.25 473.1 497.95 473.95 497.8 475.05 498.2 476.1 498.65 477 499.25 477.6 500.05 478 500.6 478.25 501.2 478.5 501.85 478.6 502.55 478.7 503.2 478.6 503.8 478.5 504.5 478.25 505.15 477.85 505.75 477.4 506.4 476.55 507.1 475.6 507.6 474.35 508.35 473.1 509.05 472.4 509.65 471.75 510.3 471.15 511 470.5 511.6 469.4 512.25 468.25 512.9 467.45 513.35 466.6 513.8 466.15 513.95 465.75 514.2 464.85 514.45 463.95 514.65 462.25 515.05 460.55 515.65 459 516.15 457.45 516.8 456.6 517.45 455.75 518.1 454.9 518.75 454 519.45 430.35 527.95 407.15 538 393.3 544 378.25 544.5 338.35 553.25 298.55 542.4 272.85 535.4 250.55 520.85 246.75 518.4 243.6 515.05 239.75 512.95 236.65 509.9 234.05 507.25 231.3 504.9 228.7 502.6 227.6 499.5 227.35 498.85 227.25 498.2 227.15 497.55 227.25 496.9 227.35 496.25 227.6 495.6 227.75 494.95 228.15 494.4 228.7 493.65 229.35 493.05 229.95 492.55 230.55 492.15 231.5 492.15 232.3 491.9 232.35 491.9 232.35 491.7 233.4 492.15 234.5 492.55 Z"/>

<path fill="#000000" stroke="none" d="
M 236.2 493.85
Q 235.35 493.25 234.5 492.55 233.4 492.15 232.35 491.7 232.35 491.9 232.3 491.9 231.5 492.15 230.55 492.15 229.95 492.55 229.35 493.05 228.7 493.65 228.15 494.4 227.75 494.95 227.6 495.6 227.35 496.25 227.25 496.9 227.15 497.55 227.25 498.2 227.35 498.85 227.6 499.5 228.7 502.6 231.3 504.9 234.05 507.25 236.65 509.9 239.75 512.95 243.6 515.05 246.75 518.4 250.55 520.85 272.85 535.4 298.55 542.4 338.35 553.25 378.25 544.5 393.3 544 407.15 538 430.35 527.95 454 519.45 454.9 518.75 455.75 518.1 456.6 517.45 457.45 516.8 459 516.15 460.55 515.65 462.25 515.05 463.95 514.65 464.85 514.45 465.75 514.2 466.15 513.95 466.6 513.8 467.45 513.35 468.25 512.9 469.4 512.25 470.5 511.6 471.15 511 471.75 510.3 472.4 509.65 473.1 509.05 474.35 508.35 475.6 507.6 476.55 507.1 477.4 506.4 477.85 505.75 478.25 505.15 478.5 504.5 478.6 503.8 478.7 503.2 478.6 502.55 478.5 501.85 478.25 501.2 478 500.6 477.6 500.05 477 499.25 476.1 498.65 475.05 498.2 473.95 497.8 473.1 497.95 472.2 498.25 471.15 498.65 470.1 499.15 468.95 499.75 467.85 500.35 467.2 501 466.6 501.7 465.9 502.3 465.25 502.95 463.95 503.6 462.65 504.05 459.75 504.9 457 505.95 452.45 507.55 448.85 510.75 438.45 512.95 428.75 517.3 409.7 525.8 389.95 532.8 384.75 533.25 379.6 533.95 375.1 534.55 370.85 536.3 342.15 540.15 313.65 535.45 287.5 531.1 264.8 517.25 264.15 516.6 263.55 515.9 262.85 515.3 262.2 514.65 259.8 513.35 257.4 512.1 250.95 508.8 245.4 504.2 240.95 500.65 237.1 496.45 236.9 495.8 236.65 495.15 236.45 494.5 236.2 493.85
M 258.25 394.25
Q 257.85 394.95 257.45 395.55 257.2 396.25 257 396.9 256.8 397.5 256.6 398.2 255.95 398.85 255.55 399.6 255.25 400.1 255.25 400.8 255.05 402.05 255 403.35 254.85 405.95 254.85 408.55 254.85 410.55 254.85 412.45 254.85 413.75 254.85 415.1 254.65 415.7 254.4 416.35 254.15 417.05 254 417.65 253.75 418.3 253.55 418.95 253.3 419.6 253.15 420.25 253.15 420.9 253.15 421.55 253.15 422.85 253.15 424.15 253.15 424.8 253.15 425.5 253.15 426.1 253.15 426.75 253.15 427.35 253.15 428.05 253.3 428.7 253.55 429.35 253.75 430 254 430.65 254.15 431.3 254.4 431.95 254.65 432.6 254.85 433.25 254.85 433.9 254.85 434.55 254.85 435.2 254.85 435.85 254.85 436.5 254.85 437.15 254.85 437.75 255 438.4 255.05 439.1 255.25 439.7 255.95 441.05 256.55 442.35 256.8 443 257.1 443.55 257.45 444.3 257.8 445 258.1 445.6 258.3 446.2 258.3 446.9 258.4 447.55 258.55 448.15 258.75 448.85 258.95 449.5 259.15 450.1 259.65 450.8 260.1 451.4 260.65 452.05 261.3 452.75 261.75 453.4 262 454.1 262.2 454.65 262.2 455.35 262.85 455.95 263.55 456.6 264.15 457.3 264.8 457.9 266.1 458.4 267.45 458.65 268.05 458.8 268.7 458.8 269.8 458.4 270.9 457.9 272.4 456.6 273.8 455.2 274.35 454.65 274.65 453.95 274.95 453.4 275.3 452.75 275.65 452.05 276.05 451.45 276.75 449.5 277.15 447.45 277.6 445.6 277.95 443.7 278.25 442.35 278.65 441.05 278.85 440.4 279.1 439.7 279.1 433.9 279.2 428.05 279.35 422.15 278.05 416.45 277.1 412 277.35 407.25 277.15 406.65 276.9 405.95 276.7 405.3 276.5 404.7 276.3 404 276.05 403.35 275.4 402.05 274.75 400.8 274.35 400.1 274 399.4 273.7 398.85 273.35 398.2 273 397.5 272.6 396.9 272.4 396.25 272.15 395.55 271.95 394.95 271.75 394.3 271.5 393.6 271.3 393 271.05 392.35 270.9 391.65 270 391 269.15 390.4 268.05 389.95 267 389.55 265.45 389.55 263.95 389.55 263.95 389.75 263.9 389.75 262.6 390.15 261.35 390.4 260.65 391 260.05 391.65 259.4 392.35 258.75 393 258.55 393.6 258.25 394.25
M 426.7 395.2
Q 425.9 394.45 425 393.85 423.9 393.45 422.85 393 421.35 393 419.8 393 419.8 393.2 419.75 393.2 418.95 393.45 418.1 393.55 417.65 393.6 417.2 393.85 416.8 394.05 416.35 394.25 414.85 394.95 413.3 395.55 412.65 396.25 412.1 396.95 411.6 397.5 411.25 398.2 410.95 398.85 410.7 399.45 410.7 400.1 410.7 400.8 410.7 401.4 410.6 402.05 410.5 402.75 410.25 403.35 409.85 404 409.35 404.65 408.75 405.3 408.25 406.05 407.9 406.65 407.65 407.25 407.45 407.9 407.45 408.6 407.25 410.55 407.25 412.45 407.25 413.75 407.25 415.1 407.25 416.35 407.1 417.65 407.05 418.3 406.8 418.95 406.4 419.6 405.95 420.25 405.95 420.9 405.85 421.5 405.2 426 405.35 430.65 405.55 434.55 405.55 438.45 405.55 441.1 405.95 443.6 406.4 444.3 406.8 444.95 407.05 445.6 407.25 446.2 407.45 446.9 407.65 447.55 407.9 448.15 408.15 448.85 408.55 449.5 409.05 450.05 409.6 450.8 410.3 451.4 411.15 452.05 412.05 452.75 413.55 453.15 415 453.6 417.2 453.6 419.4 453.6 420.25 453.4 421.1 453.15 421.75 452.75 422.45 452.3 423.3 451 424.05 449.65 424.4 449 424.65 448.45 425 447.75 425.4 447.15 425.9 446.45 426.2 445.75 426.5 445.2 426.75 444.5 427.35 443.85 428 443.15 428.45 442.55 428.9 441.9 429.1 441.25 429.3 440.6 429.55 439.95 429.8 439.3 430 438.7 430.2 438 430.4 437.35 430.65 436.75 430.85 436.05 431.05 435.4 431.25 434.8 431.5 434.1 431.5 427.6 431.5 421.1 431.5 414.6 431.6 408.15 431.7 404.15 431.05 400.35 430.65 399.7 430.2 399.05 429.8 398.35 429.25 397.8 428.7 397.1 428.05 396.4 427.35 395.8 426.7 395.2 Z"/>
</g>
</g>
</g>
</g>

<g id="Layer_2">
<g transform="matrix( 1, 0, 0, 1, 0,0) ">
<g>
<g>
<path fill="#282828" stroke="none" d="
M 658.8 150.8
Q 659.5 150.4 660.25 150 632.55 139.5 604.6 129.8 571.55 118.3 538.4 107.15 505.7 96.15 474.3 82.05 443.9 68.4 413.85 54.15 397.55 46.4 381.65 38 380.35 37.65 379.1 37.35 378.35 36.95 377.6 36.6 374.55 36.2 371.55 35.85 370.8 35.45 370.05 35.05 367.8 34.7 365.5 34.3 364.75 33.95 364 33.55 361.75 33.2 359.5 32.8 358.75 32.45 357.95 32.15 356.65 31.7 355.35 31.3 354.75 31.1 354.2 30.9 354.2 31.1 354.15 31.15 353.85 31.25 353.6 31.35 353.2 30.9 352.7 30.55 350.45 30.35 348.2 30.15 348.2 30.35 348.1 30.4 347.25 30.75 346.3 30.9 345.15 31.5 344.1 32.15 343.3 32.6 342.55 33.25 341.95 33.75 341.4 34.3 340.45 34.9 339.5 35.45 338.2 35.85 336.9 36.25 335.75 36.6 334.6 36.95 333.65 37.5 332.75 38.15 331.2 39.2 329.65 40.3 328.75 40.9 327.8 41.5 325.35 42.05 323 42.85 318.5 44.4 314.4 46.7 308.5 50 302.2 52.4 301.6 53 301.05 53.55 299 53.9 296.95 54.45 295.95 54.7 295 55.05 294.65 55.6 294.25 56.2 293.9 56.75 293.5 57.3 292.55 57.9 291.6 58.4 290.5 59 289.35 59.6 287.85 59.95 286.4 60.4 285.4 60.7 284.45 61.1 283.9 61.65 283.35 62.2 282.4 62.8 281.4 63.25 275.85 65.95 270.15 68.3 261.15 72.05 252.05 75.4 251.5 75.95 250.9 76.55 249.95 77.1 249.05 77.65 236.7 80.65 224.7 84.9 190.95 96.95 157.65 110.5 121.35 125.3 85.05 140.65 84.1 141.2 83.15 141.75 82.6 142.35 82 142.85 81.25 143.45 80.5 144 77.5 144.8 74.55 145.75 73.55 146.1 72.6 146.65 72.2 147.25 71.8 147.75 71.3 148.35 70.7 148.9 69.75 149.5 68.85 150.05 66.5537109375 150.5265625 64.25 151.05 63.7001953125 151.511328125 63.1 151.95 62.3 152.55 61.45 153.05 61.1 153.55 60.75 154.1 60.1 154.6 59.4 155.1 58.7 155.6 58 156.1 57.6490234375 156.345703125 57.3 156.6 57.2689453125 156.7169921875 57.25 156.85 57.15 157.4 57.25 157.95 57.35 158.55 57.5 159.1 57.7 159.65 58.1 159.95 59.05 160.6 60.15 160.9 61.1 161.15 62.05 161.35 63.15 161.95 64.3 162.5 66.95 162.85 69.6 163.25 70.35 163.65 71.05 164.05 72.95 165.15 74.8 166.35 78.6 168.85 83.15 169.3 96.25 175.55 110.1 179.6 117.6 181.85 125 184.25 125.55 184.45 126.05 184.6 135.2 187.6 144.6 190 145.35 190.4 146.15 190.7 147.6 191.35 149.15 191.8 154.15 193.25 159.3 193.8 162.3 195.6 165.7 196.45 168.75 197.2 171.75 197.95 173.25 198.3 174.75 198.7 178.95 199.85 183.05 201.3 184 201.9 185 202.4 187.4 203.6 189.95 204.4 192.65 205.3 195.5 205.85 197.4 206.8 199.35 207.4 208.25 210 216.45 214.1 223.35 217.6 230.95 217.9 232.65 218.85 234.4 219.6 242.85 223.05 251.55 225.85 259.6 228.5 267.5 230.35 268.45 230.9 269.4 231.45 275.35 234.9 282.2 235.65 285.95 237.5 290.15 238.25 291.45 238.45 292.75 238.65 293.5 239 294.25 239.4 295.4 239.95 296.55 240.4 297.85 240.9 299.15 241.3 302 241.45 304.8 241.8 305.2 241.85 305.6 242.05 305.95 242.4 306.35 242.75 307.1 243.35 307.85 243.9 310.1 244.3 312.35 244.8 312.75 244.85 313.1 245.05 313.5 245.45 313.95 245.7 315 246.35 316.15 246.95 320.65 247.3 325.2 247.7 325.95 248.05 326.7 248.45 328.75 248.8 330.85 249.2 331.6 249.6 332.4 249.85 333.65 250.35 334.95 250.8 336.1 251.3 337.25 251.85 338.4 252.4 339.5 252.95 341.95 253.35 344.4 253.75 344.95 254.1 345.55 254.5 347.25 254.85 348.95 255.25 349.1 255.4 349.35 255.55 350.05 256 350.85 256.35 352.15 256.95 353.45 257.5 354.95 257.7 356.45 257.7 357.05 257.7 357.6 257.5 358 257.1 358.3 256.7 358.5 256.5 358.65 256.25 360.2 256.3 361.75 256.35 362.5 256 363.25 255.6 374.8 252.25 386 248 397.1 243.8 408.4 240.2 423.75 235.3 439.05 230 449.65 229.1 459 223.95 463.15 223.4 467.3 222.65 471.25 221.95 474.85 220.15 475.6 219.6 476.4 219.15 477.5 218.5 478.6 217.9 482 217.55 485.4 217.15 488.4 216.15 491.5 215.55 495.9 214.65 499.35 211.9 505.25 210.6 511.05 209 515.55 207.75 520 206.35 530.9 202.9 541.95 199.8 546.1 199.45 550.25 199.05 553.05 198.1 555.95 197.3 559.95 196.15 563.45 193.8 567.65 193.2 571.7 191.75 583.35 187.55 594.35 181.7 596.6 181.15 598.9 180.6 599.5 180.2 600.15 179.85 601.4 179.1 602.65 178.35 603.6 177.75 604.55 177.2 608.6 176.25 612.3 174.25 617.25 171.55 622.65 169.65 625.65 169.3 628.65 168.8 629.2 168.7 629.8 168.55 630.15 168.15 630.5 167.75 630.9 167.2 631.3 166.65 631.5 166.1 631.65 165.5 631.8 165.05 632 164.6 632.2 164.5 632.45 164.4 633.35 164 634.3 163.65 636.55 163.25 638.85 162.85 639.8 162.5 640.7 162.1 643.8 160.8 646.45 158.8 647.3 158.15 648.25 157.6 649.95 157.05 651.6 156.35 652.8 155.9 653.9 155.35 654.3 154.75 654.75 154.25 655.25 153.65 655.8 153.05 656.35 152.5 656.95 151.95 657.85 151.35 658.8 150.8
M 418 93.05
Q 423.45 94.85 428.55 97.55 430.5 98.6 432.5 99.6 432.6 99.55 432.7 99.55 432.8 99.5 432.85 99.45 433.25 99.65 433.6 99.8 433.8 100 434 100.2 434.1 100.35 434.2 100.45 435.45 101.05 436.75 101.65 437.15 101.85 437.6 102.05 438.4 102.4 439.25 102.8 439.3 102.9 439.35 103 439.6 103.5 439.8 104.05 440.15 104.45 440.55 104.8 441.55 105.4 442.6 105.85 442.9 106 443.25 106.2 443.4 106.4 443.6 106.55 443.85 106.75 444.1 106.95 444.3 107.15 444.5 107.3 444.8 107.5 445.1 107.7 445.35 107.9 445.6 108.05 445.9 108.25 446.25 108.45 446.35 108.65 446.5 108.8 446.75 109 447 109.2 447.3 109.55 447.6 109.95 448 110.3 448.3 110.75 448.6 111.05 448.9 111.45 449.05 111.65 449.2 111.85 449.35 112 449.5 112.2 449.75 112.4 449.95 112.6 450.15 112.75 450.35 112.95 450.6 113.15 450.85 113.3 451.1 113.7 451.35 114.05 451.6 114.45 451.9 114.8 452.15 115.2 452.5 115.55 452.65 115.75 452.85 115.95 453.1 116.15 453.35 116.3 453.4 116.5 453.5 116.7 453.6 116.9 453.75 117.05 453.8 117.25 453.85 117.45 453.9 117.65 454 117.8 454.05 118 454.1 118.2 454.25 118.4 454.35 118.55 454.5 118.75 454.65 118.95 454.8 119.15 454.95 119.35 455.1 119.5 455.25 119.7 455.35 119.9 455.5 120.05 455.55 120.25 455.6 120.45 455.65 120.65 455.75 120.8 455.8 121 455.85 121.2 456.25 121.75 456.65 122.25 457.15 122.8 457.45 123.45 457.65 123.8 457.9 124.15 458.3 124.7 458.5 125.3 458.55 125.5 458.55 125.7 458.55 125.9 458.45 126.05
L 458.45 126.1
Q 458.65 126.3 458.8 126.5 458.9 126.65 459 126.8 459 127 458.95 127.2 458.85 127.4 458.7 127.55 458.6 127.7 458.5 127.8 458.3 127.9 458.1 127.9 457.35 127.9 456.6 127.8 456.45 127.75 456.3 127.65 456.2 127.75 456.1 127.8 455.9 127.9 455.75 127.9 455.15 127.9 454.6 127.8 454.35 127.7 454.1 127.55 453 127.3 451.85 127.05 451.55 127 451.25 126.95 450.1 126.75 449.1 126.2 445.75 126.1 442.6 125 441.5 124.6 440.35 124.3 440 124.2 439.6 124.05 438.65 123.95 437.75 123.8 437.15 123.7 436.6 123.55 435.85 123.35 435.1 123.15 435.2 123.3 435.35 123.45 435.45 123.55 435.6 123.6 435.85 123.75 436.1 123.95 436.25 124.15 436.4 124.3 436.55 124.5 436.75 124.7 436.9 124.9 437.1 125.05 437.4 125.25 437.75 125.45 437.9 125.65 438.1 125.8 438.35 126 438.6 126.2 439 126.55 439.35 126.95 439.55 127.15 439.75 127.35 440.85 128.5 442.15 129.55 442.4 129.75 442.75 129.95 442.8 130.15 442.9 130.3 443 130.5 443.1 130.7 443.35 130.9 443.6 131.05 443.75 131.25 443.85 131.45 444.1 131.65 444.35 131.8 444.4 131.8 444.5 131.8 444.55 132.05 444.6 132.35 444.7 132.9 444.7 133.5 444.7 134.05 444.7 134.6 445.1 135.15 445.4 135.8 445.65 136.3 445.85 136.85 446 137.45 446.1 138 446.2 139.15 446.2 140.25 446.2 140.85 446.2 141.4 446.2 141.95 446.1 142.5 446 143.1 445.85 143.65 445.65 144.2 445.3 144.65 444.7 145.35 443.95 145.9 443.8 145.85 443.6 145.8 443.55 145.75 443.5 145.7 443.35 145.55 443.2 145.45 442.05 144.7 440.8 144.05 438.9 143.1 437.1 142.05 436.6 141.95 436.1 141.8 435.9 141.7 435.75 141.55 435.05 140.8 434.1 140.45 433 140 431.85 139.55 431.65 139.4 431.5 139.2 431.3 139 431.1 138.8 430.9 138.65 430.75 138.45 430.4 138.25 430.1 138.05 429.75 137.95 429.35 137.8 429.15 137.7 429 137.55 428.75 137.4 428.5 137.2 428.4 137 428.3 136.85 428.15 136.65 427.95 136.45 427.75 136.25 427.5 136.05 427.35 136.05 427.25 136.05 427.05 136.05 426.9 136.15 426.65 136.2 426.55 136.35 426.4 136.5 426.35 136.7 426.3 136.9 426.25 137.05 426.25 137.25 426.25 137.45 426.25 137.65 426.25 137.8 426.3 138 426.35 138.2 426.4 138.4 426.5 138.55 426.6 138.75 426.7 138.95 426.8 139.15 426.9 139.3 427.05 139.7 427.2 140.1 427.25 140.25 427.25 140.45 427.3 140.65 427.4 140.8 427.5 141 427.6 141.2 427.65 141.4 427.75 141.55 427.75 141.75 427.75 141.95 427.75 142.15 427.75 142.3 427.75 142.5 427.75 142.7 427.75 142.9 427.75 143.05 427.8 143.25 427.85 143.45 428 143.65 428.1 143.85 428.1 144.3 428.2 144.75 428.3 145.35 428.55 145.9 428.7 146.2 428.85 146.45 428.95 146.65 429.1 146.8
L 429.1 146.85
Q 429.15 147 429.25 147.2 429.25 147.95 429.25 148.7 429.25 149.45 429.25 150.2 429.2 150.95 429.25 151.7 429.25 152.65 429.25 153.55 429.25 154.5 429.25 155.45 429.15 155.65 429.1 155.8 429.05 156 429 156.2 428.9 156.4 428.85 156.55 428.8 156.75 428.75 156.95 428.75 157.3 428.75 157.7 428.75 158.05 428.75 158.45 428.45 158.95 428.15 159.5 427.55 160.6 427 161.75 426.8 162.3 426.7 162.9 426.6 163.45 426.6 164 426.6 164.85 426.55 165.75 426.45 165.8 426.35 165.95 426.15 166.15 426.05 166.35 425.9 166.5 425.85 166.7 425.8 166.9 425.75 167.05 425.65 167.25 425.55 167.4 425.3 167.65 425.05 167.9 424.9 168 424.85 168.2 424.8 168.4 424.75 168.55 424.8 168.75 424.9 168.9 425 169.1 425.15 169.2 424.95 169.45 424.7 169.65 423.4 169.85 422.1 170.05 421.15 169.65 420.2 169.3 419.8 168.7 419.45 168.15 419.25 167.6 419.15 167 419.05 166.45 419.05 165.9 418.7 165.4 418.35 164.85 418.5 164.6 418.6 164.35 418.9 163.8 419.05 163.25 418.9 162.7 418.6 162.15
L 418.6 162.1
Q 418.3 161.55 417.85 161.1 416.2 159.5 415 157.55 414.35 156.45 413.75 155.35 413.4 154.8 413.05 154.2 412.3 153.65 411.55 153.1 411.2 152.85 410.85 152.55 410.45 152.25 410 151.95 409.65 151.4 409.25 150.8 408.9 150.25 408.5 149.7 408.15 149.1 407.85 148.5 407.55 148 407.4 147.4 406.25 146.85 405.15 146.2 404.35 145.75 403.6 145.15 403.25 144.6 402.85 144.05 402.5 143.45 402.2 142.85 401.9 142.35 401.75 141.75 400.95 141.2 400.2 140.65 398.7 140.25 397.3 139.7 396.85 139.5 396.45 139.15 396.05 138.55 395.7 138 394.95 137.45 394.2 136.85 393.45 136.3 392.7 135.75 391.95 135.15 391.15 134.6 385.5 134.4 379.85 134.25 379.85 134.4 379.8 134.45 379.3 134.6 378.8 134.8 378.15 135 377.65 135.4 377.05 135.95 376.45 136.5 375.55 137.05 374.6 137.65 373.85 138.2 373.1 138.75 372.7 139.3 372.3 139.9 371.4 140.45 370.45 141 369.85 141.6 369.3 142.15 368.35 142.7 367.4 143.3 366.5 143.85 365.55 144.4 364.95 144.95 364.4 145.55 363.3 146.1 362.25 146.8 360.8 147.8 359.6 149.05 358.55 150.05 357.65 151.25 357.25 151.75 356.85 152.35 356.1 152.9 355.35 153.45 355 154 354.7 154.65 354.4 155.15 354.15 155.7 353.85 156.3 353.45 156.85 353.1 157.4 352.7 158 351.8 158.55 350.85 159.1 350.5 159.45 350.15 159.8 349.65 159.55 349.15 159.2 348.75 158.9 348.55 158.35 348.4 157.8 348.3 157.2 348.2 156.7 348.2 156.25
L 348.2 156
Q 348.2 155.5 348.3 155 348.4 154.4 348.55 153.85 348.95 153.45 349.35 153.15 349.5 153.05 349.7 152.95 349.7 152.45 349.8 151.95 349.9 151.4 350.15 150.85 350.45 150.25 350.85 149.7 351 149.1 351.05 148.55 351.2 146.85 351.2 145.15 351.2 144.7 351.2 144.25 351.2 144.15 351.2 144.05 351.2 143.5 351.2 142.95 351.8 141.25 352.35 139.5 353.3 136.7 354.25 133.85 354.25 133.65 354.25 133.45 354.45 132.9 354.6 132.35 355 131.2 355.35 130.1 355.55 129.5 355.75 128.95 356.1 128.4 356.4 127.8 356.7 127.25 356.95 126.75 357.25 126.1 357.6 125.55 358 125 358.35 124.45 358.75 123.3 359.05 122.15 359.35 121 359.7 119.95 359.9 119.65 360.15 119.35 362.15 116.9 364.2 114.45 365.9 112.35 367.4 110.1 368.55 109.55 369.7 108.95 372.2 106.6 375.05 104.55 378.5 102.1 382.1 99.9 382.7 99.35 383.25 98.8 384.2 98.4 385.15 98.05 386.45 97.45 387.7 96.8 388.55 96.35 389.3 95.8 390.25 95.4 391.15 95 392.5 94.45 393.75 93.75 394.55 93.35 395.3 92.75 395.5 92.7 395.75 92.7 404.05 92.5 412.4 92.25 413.75 92.25 415.1 92.3 415.8 92.35 416.45 92.4 417.2 92.75 418 93.05 Z"/>

<path fill="#FF8A2F" stroke="none" d="
M 428.55 97.55
Q 423.45 94.85 418 93.05 417.2 92.75 416.45 92.4 415.8 92.35 415.1 92.3 413.75 92.25 412.4 92.25 404.05 92.5 395.75 92.7 395.5 92.7 395.3 92.75 394.55 93.35 393.75 93.75 392.5 94.45 391.15 95 390.25 95.4 389.3 95.8 388.55 96.35 387.7 96.8 386.45 97.45 385.15 98.05 384.2 98.4 383.25 98.8 382.7 99.35 382.1 99.9 378.5 102.1 375.05 104.55 372.2 106.6 369.7 108.95 368.55 109.55 367.4 110.1 365.9 112.35 364.2 114.45 362.15 116.9 360.15 119.35 359.9 119.65 359.7 119.95 359.35 121 359.05 122.15 358.75 123.3 358.35 124.45 358 125 357.6 125.55 357.25 126.1 356.95 126.75 356.7 127.25 356.4 127.8 356.1 128.4 355.75 128.95 355.55 129.5 355.35 130.1 355 131.2 354.6 132.35 354.45 132.9 354.25 133.45 354.25 133.65 354.25 133.85 353.3 136.7 352.35 139.5 351.8 141.25 351.2 142.95 351.2 143.5 351.2 144.05 351.2 144.15 351.2 144.25 351.2 144.7 351.2 145.15 351.2 146.85 351.05 148.55 351 149.1 350.85 149.7 350.45 150.25 350.15 150.85 349.9 151.4 349.8 151.95 349.7 152.45 349.7 152.95 349.5 153.05 349.35 153.15 348.95 153.45 348.55 153.85 348.4 154.4 348.3 155 348.2 155.5 348.2 156
L 348.2 156.25
Q 348.2 156.7 348.3 157.2 348.4 157.8 348.55 158.35 348.75 158.9 349.15 159.2 349.65 159.55 350.15 159.8 350.5 159.45 350.85 159.1 351.8 158.55 352.7 158 353.1 157.4 353.45 156.85 353.85 156.3 354.15 155.7 354.4 155.15 354.7 154.65 355 154 355.35 153.45 356.1 152.9 356.85 152.35 357.25 151.75 357.65 151.25 358.55 150.05 359.6 149.05 360.8 147.8 362.25 146.8 363.3 146.1 364.4 145.55 364.95 144.95 365.55 144.4 366.5 143.85 367.4 143.3 368.35 142.7 369.3 142.15 369.85 141.6 370.45 141 371.4 140.45 372.3 139.9 372.7 139.3 373.1 138.75 373.85 138.2 374.6 137.65 375.55 137.05 376.45 136.5 377.05 135.95 377.65 135.4 378.15 135 378.8 134.8 379.3 134.6 379.8 134.45 379.85 134.4 379.85 134.25 385.5 134.4 391.15 134.6 391.95 135.15 392.7 135.75 393.45 136.3 394.2 136.85 394.95 137.45 395.7 138 396.05 138.55 396.45 139.15 396.85 139.5 397.3 139.7 398.7 140.25 400.2 140.65 400.95 141.2 401.75 141.75 401.9 142.35 402.2 142.85 402.5 143.45 402.85 144.05 403.25 144.6 403.6 145.15 404.35 145.75 405.15 146.2 406.25 146.85 407.4 147.4 407.55 148 407.85 148.5 408.15 149.1 408.5 149.7 408.9 150.25 409.25 150.8 409.65 151.4 410 151.95 410.45 152.25 410.85 152.55 411.2 152.85 411.55 153.1 412.3 153.65 413.05 154.2 413.4 154.8 413.75 155.35 414.35 156.45 415 157.55 416.2 159.5 417.85 161.1 418.3 161.55 418.6 162.1
L 418.6 162.15
Q 418.9 162.7 419.05 163.25 418.9 163.8 418.6 164.35 418.5 164.6 418.35 164.85 418.7 165.4 419.05 165.9 419.05 166.45 419.15 167 419.25 167.6 419.45 168.15 419.8 168.7 420.2 169.3 421.15 169.65 422.1 170.05 423.4 169.85 424.7 169.65 424.95 169.45 425.15 169.2 425 169.1 424.9 168.9 424.8 168.75 424.75 168.55 424.8 168.4 424.85 168.2 424.9 168 425.05 167.9 425.3 167.65 425.55 167.4 425.65 167.25 425.75 167.05 425.8 166.9 425.85 166.7 425.9 166.5 426.05 166.35 426.15 166.15 426.35 165.95 426.45 165.8 426.55 165.75 426.6 164.85 426.6 164 426.6 163.45 426.7 162.9 426.8 162.3 427 161.75 427.55 160.6 428.15 159.5 428.45 158.95 428.75 158.45 428.75 158.05 428.75 157.7 428.75 157.3 428.75 156.95 428.8 156.75 428.85 156.55 428.9 156.4 429 156.2 429.05 156 429.1 155.8 429.15 155.65 429.25 155.45 429.25 154.5 429.25 153.55 429.25 152.65 429.25 151.7 429.2 150.95 429.25 150.2 429.25 149.45 429.25 148.7 429.25 147.95 429.25 147.2 429.15 147 429.1 146.85
L 429.1 146.8
Q 428.95 146.65 428.85 146.45 428.7 146.2 428.55 145.9 428.3 145.35 428.2 144.75 428.1 144.3 428.1 143.85 428 143.65 427.85 143.45 427.8 143.25 427.75 143.05 427.75 142.9 427.75 142.7 427.75 142.5 427.75 142.3 427.75 142.15 427.75 141.95 427.75 141.75 427.75 141.55 427.65 141.4 427.6 141.2 427.5 141 427.4 140.8 427.3 140.65 427.25 140.45 427.25 140.25 427.2 140.1 427.05 139.7 426.9 139.3 426.8 139.15 426.7 138.95 426.6 138.75 426.5 138.55 426.4 138.4 426.35 138.2 426.3 138 426.25 137.8 426.25 137.65 426.25 137.45 426.25 137.25 426.25 137.05 426.3 136.9 426.35 136.7 426.4 136.5 426.55 136.35 426.65 136.2 426.9 136.15 427.05 136.05 427.25 136.05 427.35 136.05 427.5 136.05 427.75 136.25 427.95 136.45 428.15 136.65 428.3 136.85 428.4 137 428.5 137.2 428.75 137.4 429 137.55 429.15 137.7 429.35 137.8 429.75 137.95 430.1 138.05 430.4 138.25 430.75 138.45 430.9 138.65 431.1 138.8 431.3 139 431.5 139.2 431.65 139.4 431.85 139.55 433 140 434.1 140.45 435.05 140.8 435.75 141.55 435.9 141.7 436.1 141.8 436.6 141.95 437.1 142.05 438.9 143.1 440.8 144.05 442.05 144.7 443.2 145.45 443.35 145.55 443.5 145.7 443.55 145.75 443.6 145.8 443.8 145.85 443.95 145.9 444.7 145.35 445.3 144.65 445.65 144.2 445.85 143.65 446 143.1 446.1 142.5 446.2 141.95 446.2 141.4 446.2 140.85 446.2 140.25 446.2 139.15 446.1 138 446 137.45 445.85 136.85 445.65 136.3 445.4 135.8 445.1 135.15 444.7 134.6 444.7 134.05 444.7 133.5 444.7 132.9 444.6 132.35 444.55 132.05 444.5 131.8 444.4 131.8 444.35 131.8 444.1 131.65 443.85 131.45 443.75 131.25 443.6 131.05 443.35 130.9 443.1 130.7 443 130.5 442.9 130.3 442.8 130.15 442.75 129.95 442.4 129.75 442.15 129.55 440.85 128.5 439.75 127.35 439.55 127.15 439.35 126.95 439 126.55 438.6 126.2 438.35 126 438.1 125.8 437.9 125.65 437.75 125.45 437.4 125.25 437.1 125.05 436.9 124.9 436.75 124.7 436.55 124.5 436.4 124.3 436.25 124.15 436.1 123.95 435.85 123.75 435.6 123.6 435.45 123.55 435.35 123.45 435.2 123.3 435.1 123.15 435.85 123.35 436.6 123.55 437.15 123.7 437.75 123.8 438.65 123.95 439.6 124.05 440 124.2 440.35 124.3 441.5 124.6 442.6 125 445.75 126.1 449.1 126.2 450.1 126.75 451.25 126.95 451.55 127 451.85 127.05 453 127.3 454.1 127.55 454.35 127.7 454.6 127.8 455.15 127.9 455.75 127.9 455.9 127.9 456.1 127.8 456.2 127.75 456.3 127.65 456.45 127.75 456.6 127.8 457.35 127.9 458.1 127.9 458.3 127.9 458.5 127.8 458.6 127.7 458.7 127.55 458.85 127.4 458.95 127.2 459 127 459 126.8 458.9 126.65 458.8 126.5 458.65 126.3 458.45 126.1
L 458.45 126.05
Q 458.55 125.9 458.55 125.7 458.55 125.5 458.5 125.3 458.3 124.7 457.9 124.15 457.65 123.8 457.45 123.45 457.15 122.8 456.65 122.25 456.25 121.75 455.85 121.2 455.8 121 455.75 120.8 455.65 120.65 455.6 120.45 455.55 120.25 455.5 120.05 455.35 119.9 455.25 119.7 455.1 119.5 454.95 119.35 454.8 119.15 454.65 118.95 454.5 118.75 454.35 118.55 454.25 118.4 454.1 118.2 454.05 118 454 117.8 453.9 117.65 453.85 117.45 453.8 117.25 453.75 117.05 453.6 116.9 453.5 116.7 453.4 116.5 453.35 116.3 453.1 116.15 452.85 115.95 452.65 115.75 452.5 115.55 452.15 115.2 451.9 114.8 451.6 114.45 451.35 114.05 451.1 113.7 450.85 113.3 450.6 113.15 450.35 112.95 450.15 112.75 449.95 112.6 449.75 112.4 449.5 112.2 449.35 112 449.2 111.85 449.05 111.65 448.9 111.45 448.6 111.05 448.3 110.75 448 110.3 447.6 109.95 447.3 109.55 447 109.2 446.75 109 446.5 108.8 446.35 108.65 446.25 108.45 445.9 108.25 445.6 108.05 445.35 107.9 445.1 107.7 444.8 107.5 444.5 107.3 444.3 107.15 444.1 106.95 443.85 106.75 443.6 106.55 443.4 106.4 443.25 106.2 442.9 106 442.6 105.85 441.55 105.4 440.55 104.8 440.15 104.45 439.8 104.05 439.6 103.5 439.35 103 439.3 102.9 439.25 102.8 438.4 102.4 437.6 102.05 437.15 101.85 436.75 101.65 435.45 101.05 434.2 100.45 434.1 100.35 434 100.2 433.8 100 433.6 99.8 433.25 99.65 432.85 99.45 432.8 99.5 432.7 99.55 432.6 99.55 432.5 99.6 430.5 98.6 428.55 97.55 Z"/>

<path fill="#171717" stroke="none" d="
M 563.45 193.8
Q 559.95 196.15 555.95 197.3 553.05 198.1 550.25 199.05 546.1 199.45 541.95 199.8 530.9 202.9 520 206.35 515.55 207.75 511.05 209 505.25 210.6 499.35 211.9 495.9 214.65 491.5 215.55 488.4 216.15 485.4 217.15 482 217.55 478.6 217.9 477.5 218.5 476.4 219.15 475.6 219.6 474.85 220.15 471.25 221.95 467.3 222.65 463.15 223.4 459 223.95 449.65 229.1 439.05 230 423.75 235.3 408.4 240.2 397.1 243.8 386 248 374.8 252.25 363.25 255.6 362.5 256 361.75 256.35 360.2 256.3 358.65 256.25 358.5 256.5 358.3 256.7 358 257.1 357.6 257.5 357.05 257.7 356.45 257.7 354.95 257.7 353.45 257.5 352.15 256.95 350.85 256.35 350.05 256 349.35 255.55 349.1 255.4 348.95 255.25 347.25 254.85 345.55 254.5 344.95 254.1 344.4 253.75 341.95 253.35 339.5 252.95 338.4 252.4 337.25 251.85 336.1 251.3 334.95 250.8 333.65 250.35 332.4 249.85 331.6 249.6 330.85 249.2 328.75 248.8 326.7 248.45 325.95 248.05 325.2 247.7 320.65 247.3 316.15 246.95 315 246.35 313.95 245.7 313.5 245.45 313.1 245.05 312.75 244.85 312.35 244.8 310.1 244.3 307.85 243.9 307.1 243.35 306.35 242.75 305.95 242.4 305.6 242.05 305.2 241.85 304.8 241.8 302 241.45 299.15 241.3 297.85 240.9 296.55 240.4 295.4 239.95 294.25 239.4 293.5 239 292.75 238.65 291.45 238.45 290.15 238.25 285.95 237.5 282.2 235.65 275.35 234.9 269.4 231.45 268.45 230.9 267.5 230.35 259.6 228.5 251.55 225.85 242.85 223.05 234.4 219.6 232.65 218.85 230.95 217.9 223.35 217.6 216.45 214.1 208.25 210 199.35 207.4 197.4 206.8 195.5 205.85 192.65 205.3 189.95 204.4 187.4 203.6 185 202.4 184 201.9 183.05 201.3 178.95 199.85 174.75 198.7 173.25 198.3 171.75 197.95 168.75 197.2 165.7 196.45 162.3 195.6 159.3 193.8 154.15 193.25 149.15 191.8 147.6 191.35 146.15 190.7 145.35 190.4 144.6 190 135.2 187.6 126.05 184.6 125.55 184.45 125 184.25 125 184.9 125 185.5 125.2 186.05 125.4 186.6 125.75 187.75 126.15 188.9 126.5 190 126.9 191.15 127.05 191.7 127.25 192.3 127.65 192.85 127.95 193.45 128.2 193.95 128.45 194.5 128.75 195.1 129.05 195.7 129.35 196.25 129.5 196.8 129.5 197.35 129.6 197.9 129.7 199.05 129.9 200.2 130.1 201.3 130.35 202.45 130.45 203 130.65 203.6 131.05 204.15 131.4 204.7 131.6 205.3 131.8 205.85 131.95 206.4 132.15 207 132.35 207.55 132.55 208.1 132.55 208.7 132.55 209.25 132.55 210.35 132.65 211.5 132.75 212.65 132.85 213.75 132.9 214.35 132.9 214.9 133.3 215.45 133.6 216.05 133.85 216.6 134.1 217.1 134.4 217.7 134.8 218.3 135.2 218.85 135.55 219.4 135.75 220 135.95 220.55 136.1 221.1 136.3 221.7 136.5 222.25 136.7 222.8 136.85 223.4 137.05 223.95 137 226.85 137.85 229.6 138.95 233 139.75 236.45 140.4 239.3 141.6 242.05 141.6 242.6 141.6 243.15 141.6 243.75 141.7 244.3 141.8 244.85 141.95 245.45 142.35 246 142.65 246.6
L 142.65 246.6
Q 142.8814453125 246.8595703125 143.1 247.1 143.45 247.55 143.8 248.1 144.15 248.6 144.5 249.1 144.65 249.65 144.85 250.15 145 250.65 145.2 251.2 145.55 251.7 145.85 252.2 146.2 252.7 146.6 253.2 147.0310546875 253.6525390625 147.45 254.1 147.521875 254.112109375 147.6 254.1 147.75 253.9 147.85 253.75 147.95 253.75 148 253.75 161.2 258.95 173.95 265.1 208.1 281.6 244.1 293.05 259.25 297.9 274.35 302.65 302.4 311.5 331.6 316.7 332.35 317.05 333.1 317.4 334.6 318 336.15 318.45 338.4 319.15 340.65 319.5 342.9 319.9 345.15 320.1 347.05 321 348.95 321.95 351.4 323.1 353.8 324.25 353.975390625 324.3337890625 354.15 324.4 354.34921875 324.46171875 354.55 324.5 356.4 324.95 358.3 325.4
L 358.3 325.3
Q 361.2880859375 325.3 364.25 325.3 364.3447265625 325.151953125 364.4 325 364.4 324.95 364.4 324.9 366.45 324.55 368.5 324.15 369.1 324.05 369.65 323.85 370.4 323.45 371.15 323.05 372.1 322.55 373.05 321.95 376.45 321.6 379.85 321.2 380.8 320.85 381.75 320.45 409.55 315.75 436.55 307.7 471.85 297.2 506.45 283.9 544.5 269.25 582.65 255.25 583.25 254.65 583.8 254.1 584.35 253.95 584.95 253.8 585.6 254.2 586.45 254.5 587.4 254.1 588.3 253.75 588.7 253.15 589 252.55 589.25 252.05 589.45 251.45 589.45 250.9 589.45 250.35 589.45 249.75 589.55 249.2 589.65 248.65 589.85 248.05 590.2 247.5 590.6 246.95 590.75 246.35 590.95 245.8 591.15 245.25 591.35 244.7 591.7 244.1 592 243.5 592.3 243 592.45 242.4 592.45 241.85 592.45 241.3 592.5 239.6 592.5 237.9 592.45 236.2 592.45 234.5 592.45 233.35 592.45 232.25 592.85 231.65 593.15 231.05 593.4 230.55 593.6 230 593.8 228.85 593.9 227.7 593.95 227.15 593.95 226.6 593.95 226 593.95 225.45 593.95 224.9 593.95 224.3 594.15 223.75 594.35 223.2 594.55 222.6 594.75 222.05 594.9 221.5 595.1 220.95 595.3 220.35 595.5 219.8 595.5 216.95 595.5 214.15 595.5 211.3 595.35 208.5 595.2 205.6 595.85 202.85 596.25 202.25 596.55 201.65 596.8 201.15 597 200.55 597 200 597 199.45 597 198.85 597 198.3 597.2 197.75 597.35 197.2 597.75 196.05 598.1 194.9 598.3 194.35 598.4 193.75 598.5 193.2 598.5 192.65 598.9 192.1 599.2 191.5 599.45 190.95 599.65 190.4 599.8 189.85 599.9 189.25 600 188.7 600 188.15 600.4 187.55 600.7 186.95 600.95 186.45 601.15 185.85 601.35 185.3 601.4 184.7 601.5 184.15 601.5 183.6 601.5 183.05 601.4 182.5 601.35 181.9 601.15 181.35 600.95 180.8 600.6 180.35 600.4 180.1 600.15 179.85 599.5 180.2 598.9 180.6 596.6 181.15 594.35 181.7 583.35 187.55 571.7 191.75 567.65 193.2 563.45 193.8 Z"/>
</g>
</g>
</g>
</g>
</svg>
